<svg id="Layer_1" height="512" viewBox="0 0 90 90" width="512" xmlns="http://www.w3.org/2000/svg" data-name="Layer 1"><path d="m73 63.652h-56a5.01 5.01 0 0 1 -5-5.005v-39.007a5.519 5.519 0 0 1 5.512-5.512h54.976a5.519 5.519 0 0 1 5.512 5.512v39.007a5.01 5.01 0 0 1 -5 5.005zm-55.488-47.524a3.515 3.515 0 0 0 -3.512 3.512v39.007a3.008 3.008 0 0 0 3 3.005h56a3.008 3.008 0 0 0 3-3.005v-39.007a3.515 3.515 0 0 0 -3.512-3.512z"/><path d="m56.8 75.872h-23.6a1 1 0 0 1 -1-1v-1.533a5.724 5.724 0 0 1 5.717-5.717h14.166a5.724 5.724 0 0 1 5.717 5.717v1.533a1 1 0 0 1 -1 1zm-22.6-2h21.6v-.533a3.72 3.72 0 0 0 -3.716-3.717h-14.168a3.721 3.721 0 0 0 -3.716 3.717z"/><path d="m51.75 69.622a1 1 0 0 1 -1-1v-5.97a1 1 0 0 1 2 0v5.97a1 1 0 0 1 -1 1z"/><path d="m38.25 69.622a1 1 0 0 1 -1-1v-5.97a1 1 0 0 1 2 0v5.97a1 1 0 0 1 -1 1z"/><path d="m71.812 54.082h-53.625a1 1 0 0 1 -1-1v-32.74a1 1 0 0 1 1-1h53.625a1 1 0 0 1 1 1v32.74a1 1 0 0 1 -1 1zm-52.625-2h51.625v-30.74h-51.625z"/><path d="m37.49 49.4h-12.87a1 1 0 0 1 -1-1v-3.543a4.714 4.714 0 0 1 4.708-4.708h5.453a4.714 4.714 0 0 1 4.709 4.708v3.543a1 1 0 0 1 -1 1zm-11.87-2h10.87v-2.543a2.712 2.712 0 0 0 -2.709-2.708h-5.453a2.711 2.711 0 0 0 -2.708 2.708z"/><path d="m31.055 39a4.514 4.514 0 0 1 -4.29-4.7 4.52 4.52 0 0 1 4.29-4.71 4.52 4.52 0 0 1 4.29 4.71 4.514 4.514 0 0 1 -4.29 4.7zm0-7.41a2.53 2.53 0 0 0 -2.29 2.71 2.523 2.523 0 0 0 2.29 2.7 2.524 2.524 0 0 0 2.29-2.7 2.53 2.53 0 0 0 -2.29-2.707z"/><path d="m65.38 49.4h-12.87a1 1 0 0 1 -1-1v-3.543a4.714 4.714 0 0 1 4.709-4.708h5.453a4.714 4.714 0 0 1 4.708 4.708v3.543a1 1 0 0 1 -1 1zm-11.87-2h10.87v-2.543a2.711 2.711 0 0 0 -2.708-2.708h-5.453a2.712 2.712 0 0 0 -2.709 2.708z"/><path d="m58.945 39a4.514 4.514 0 0 1 -4.29-4.7 4.309 4.309 0 1 1 8.58 0 4.514 4.514 0 0 1 -4.29 4.7zm0-7.41a2.53 2.53 0 0 0 -2.29 2.71 2.321 2.321 0 1 0 4.58 0 2.53 2.53 0 0 0 -2.29-2.707z"/><path d="m41.8 31.524a.993.993 0 0 1 -.707-.293l-2.75-2.75a1 1 0 0 1 0-1.414l2.75-2.75a1 1 0 0 1 1.414 1.414l-2.043 2.043 2.043 2.043a1 1 0 0 1 -.707 1.707z"/><path d="m48.2 28.774h-9.15a1 1 0 0 1 0-2h9.15a1 1 0 0 1 0 2z"/><path d="m48.2 39.712a1 1 0 0 1 -.707-1.707l2.043-2.043-2.043-2.043a1 1 0 0 1 1.414-1.414l2.75 2.75a1 1 0 0 1 0 1.414l-2.75 2.75a1 1 0 0 1 -.707.293z"/><path d="m50.95 36.962h-9.15a1 1 0 0 1 0-2h9.15a1 1 0 0 1 0 2z"/><path d="m68.31 58.84a1 1 0 0 1 -.38-.08 1.155 1.155 0 0 1 -.33-.21 1.014 1.014 0 0 1 0-1.42 1.018 1.018 0 0 1 .91-.271.666.666 0 0 1 .179.061.579.579 0 0 1 .181.09 1.576 1.576 0 0 1 .15.12 1.029 1.029 0 0 1 .29.71.99.99 0 0 1 -1 1z"/><path d="m60.63 58.84a1 1 0 0 1 -.39-.08 1 1 0 0 1 -.32-1.63 1.034 1.034 0 0 1 1.41 0 1 1 0 0 1 .29.71.99.99 0 0 1 -.99 1z"/><path d="m52.939 58.84a.993.993 0 0 1 -.71-.29 1.209 1.209 0 0 1 -.219-.33.987.987 0 0 1 -.071-.38 1.009 1.009 0 0 1 .29-.71 1.036 1.036 0 0 1 1.411 0 .992.992 0 0 1 0 1.42.951.951 0 0 1 -.701.29z"/></svg>