<?xml version="1.0" ?><!DOCTYPE svg  PUBLIC '-//W3C//DTD SVG 1.1//EN'  'http://www.w3.org/Graphics/SVG/1.1/DTD/svg11.dtd'><svg enable-background="new 0 0 512 512" height="512px" id="printer_x5F_plotter" version="1.1" viewBox="0 0 512 512" width="512px" xml:space="preserve" xmlns="http://www.w3.org/2000/svg" xmlns:xlink="http://www.w3.org/1999/xlink"><g><path d="M456.109,429.4h-37.09V242.66c12.961-2.59,22.75-14.061,22.75-27.771V102.92c0-15.62-12.699-28.32-28.319-28.32h-317   c-15.62,0-28.32,12.7-28.32,28.32v111.97c0,13.91,10.08,25.5,23.32,27.87V429.4H55.89c-2.2,0-4,1.789-4,4c0,2.209,1.8,4,4,4h85.39   V243.21h22.41v-8H96.45c-11.21,0-20.32-9.11-20.32-20.32v-67.42h357.64v67.42c0,11.21-9.109,20.32-20.319,20.32h-66.54v8h22.279   V437.4h86.92c2.201,0,4-1.791,4-4C460.109,431.189,458.311,429.4,456.109,429.4z M99.45,243.22h33.83V429.4H99.45V243.22z    M76.13,139.47v-36.55c0-11.2,9.11-20.32,20.32-20.32h317c11.21,0,20.319,9.12,20.319,20.32v36.55H76.13z M411.02,429.4h-33.83   V243.22h33.83V429.4z"/><path d="M155.69,169.74v125.51c0,11.52,9.38,20.891,20.9,20.891H333.98c11.51,0,20.89-9.36,20.89-20.881l0.03-52.05l0.01-8   l0.04-65.47H155.69z M346.91,243.21l-0.04,52.05c0,7.1-5.79,12.881-12.89,12.881H176.59c-7.11,0-12.9-5.781-12.9-12.891V177.74   h183.26l-0.04,57.47V243.21z"/><path d="M362.57,178.457H149.077c-2.605,0-4.718-2.112-4.718-4.718s2.113-4.718,4.718-4.718H362.57   c2.605,0,4.718,2.112,4.718,4.718S365.176,178.457,362.57,178.457z"/><path d="M317.795,223.279H193.851c-2.58,0-4.671-2.091-4.671-4.671v-0.094c0-2.58,2.091-4.671,4.671-4.671h123.944   c2.58,0,4.672,2.091,4.672,4.671v0.094C322.467,221.188,320.375,223.279,317.795,223.279z"/><path d="M317.795,246.87H193.851c-2.58,0-4.671-2.092-4.671-4.671v-0.095c0-2.58,2.091-4.671,4.671-4.671h123.944   c2.58,0,4.672,2.091,4.672,4.671v0.095C322.467,244.778,320.375,246.87,317.795,246.87z"/><path d="M317.795,270.461H193.851c-2.58,0-4.671-2.092-4.671-4.672v-0.094c0-2.58,2.091-4.671,4.671-4.671h123.944   c2.58,0,4.672,2.091,4.672,4.671v0.094C322.467,268.369,320.375,270.461,317.795,270.461z"/><path d="M399.798,127.421c-9.075,0-16.458-7.383-16.458-16.458s7.383-16.458,16.458-16.458s16.458,7.383,16.458,16.458   S408.873,127.421,399.798,127.421z M399.798,102.505c-4.663,0-8.458,3.795-8.458,8.458c0,4.664,3.795,8.458,8.458,8.458   s8.458-3.794,8.458-8.458C408.256,106.3,404.461,102.505,399.798,102.505z"/><path d="M364.412,127.421c-9.075,0-16.458-7.383-16.458-16.458s7.383-16.458,16.458-16.458s16.458,7.383,16.458,16.458   S373.487,127.421,364.412,127.421z M364.412,102.505c-4.664,0-8.458,3.795-8.458,8.458c0,4.664,3.794,8.458,8.458,8.458   s8.458-3.794,8.458-8.458C372.87,106.3,369.076,102.505,364.412,102.505z"/></g></svg>